<?xml version="1.0" encoding="UTF-8"?>
<svg id="Layer_2" data-name="Layer 2" xmlns="http://www.w3.org/2000/svg" viewBox="0 0 373.76 148.86">
  <defs>
    <style>
      .cls-1, .cls-2, .cls-3 {
        fill: #fff;
      }

      .cls-2 {
        font-size: 18.9px;
      }

      .cls-2, .cls-3 {
        font-family: CarlaSansRegular, 'Carla Sans';
      }

      .cls-3 {
        font-size: 37.92px;
      }
    </style>
  </defs>
  <g id="Layer_1-2" data-name="Layer 1">
    <g>
      <text class="cls-3" transform="translate(0 118.9)"><tspan x="0" y="0">GRAF BERNSTORFF</tspan></text>
      <text class="cls-2" transform="translate(125.88 142.64)"><tspan x="0" y="0">CONSULTING</tspan></text>
      <g>
        <path class="cls-1" d="M186.88,79.24c-17.2,0-31.2-14-31.2-31.2v-27.93L186.97,0l31.11,20.11v27.93c0,17.2-14,31.2-31.2,31.2ZM158.59,21.69v26.34c0,15.6,12.69,28.29,28.29,28.29s28.29-12.69,28.29-28.29v-26.35l-28.2-18.23-28.38,18.23Z"/>
        <polygon class="cls-1" points="157.92 36.22 156.35 33.77 186.97 14.1 217.42 33.77 215.84 36.22 186.97 17.56 157.92 36.22"/>
        <rect class="cls-1" x="167.41" y="27.46" width="2.91" height="43.69"/>
        <rect class="cls-1" x="203.44" y="27.46" width="2.91" height="43.69"/>
        <polygon class="cls-1" points="194.2 77.06 191.29 77.06 191.29 29.39 186.88 26.32 182.47 29.39 182.47 77.06 179.56 77.06 179.56 27.87 186.88 22.77 194.2 27.87 194.2 77.06"/>
        <rect class="cls-1" x="193.95" y="-2.01" width="2.91" height="46.55" transform="translate(71.41 173.79) rotate(-57.1)"/>
      </g>
    </g>
  </g>
</svg>